<svg width="66" height="29" viewBox="0 0 66 29" fill="none" xmlns="http://www.w3.org/2000/svg">
<path fill-rule="evenodd" clip-rule="evenodd" d="M17.9693 7.40753C15.567 5.35031 12.4962 4.23821 9.33201 4.27949C4.02572 4.27949 1.14913 7.47129 1.14913 10.6031C1.14913 12.8535 2.36211 15.3927 6.64694 16.5441C8.26173 16.9267 9.72256 17.253 11.3824 17.628C12.9183 18.0031 13.5568 18.652 13.4291 19.4171C13.1737 20.441 11.5739 20.8236 9.7864 20.8236C8.25047 20.8236 6.4066 20.5048 3.77787 18.1381L0 20.9511C1.08905 22.2263 4.66788 24.9756 9.91408 24.9756C15.1603 24.9756 19.1222 22.6764 19.1222 18.2694C19.1222 15.0738 16.869 13.7311 13.6844 12.7747C11.5739 12.2009 10.1694 11.8183 8.63351 11.432C7.2891 11.0569 6.52302 10.4118 6.71454 9.51539C6.90606 8.6865 8.12279 8.30393 9.34327 8.30393C10.5638 8.30393 12.7231 8.62274 14.398 10.093L17.9768 7.40753H17.9693ZM40.674 4.59829V9.13282H30.3769V12.2646H37.6698V16.6716H30.3769V19.8634H40.9294V24.398H24.7514V4.59829H40.674ZM20.6581 0H21.9349V29H20.6581V0ZM43.0399 0H44.2566V29H43.0399V0ZM47.1332 24.398V4.59829H58.7747C62.102 4.59829 64.8509 6.57863 64.8509 9.64666C64.8804 10.5804 64.6182 11.5002 64.1007 12.2784C63.5833 13.0567 62.8362 13.6548 61.963 13.9899C61.9094 14.0344 61.8411 14.0572 61.7715 14.0537H61.963C64.3289 14.8038 65.9925 16.4803 65.9925 19.0983C65.9925 22.3539 63.2436 24.398 59.8525 24.398H47.1332ZM52.6986 8.75026V12.2009H57.175C57.6469 12.2065 58.103 12.0304 58.4484 11.7092C58.7938 11.3879 59.0021 10.9461 59.0301 10.4756C59.0219 10.2406 58.9673 10.0095 58.8696 9.79558C58.7719 9.58166 58.6329 9.38907 58.4606 9.22883C58.2883 9.06859 58.0861 8.94385 57.8655 8.86173C57.6449 8.77961 57.4102 8.74173 57.175 8.75026H52.6986ZM58.1326 20.0022C58.3745 20.0133 58.6161 19.9752 58.8428 19.8904C59.0696 19.8056 59.2768 19.6757 59.4519 19.5087C59.627 19.3417 59.7663 19.1409 59.8616 18.9185C59.9568 18.6962 60.0059 18.4569 60.0059 18.215C60.0059 17.9732 59.9568 17.7339 59.8616 17.5115C59.7663 17.2891 59.627 17.0884 59.4519 16.9213C59.2768 16.7543 59.0696 16.6244 58.8428 16.5396C58.6161 16.4548 58.3745 16.4168 58.1326 16.4278H52.6986V19.9909L58.1326 20.0022Z" fill="#231F20"/>
</svg>
