<svg width="712" height="454" viewBox="0 0 712 454" fill="none" xmlns="http://www.w3.org/2000/svg">
<path d="M280.07 62.7017L295.034 73.7194L278.61 80.9229L280.062 62.7167L280.07 62.7017ZM276.846 55.6825L274.364 86.9039L302.519 74.5508L276.854 55.6825H276.846Z" fill="#090928"/>
<path d="M656.945 89.6197L630.587 89.0066L643.493 111.445L656.945 89.6197Z" fill="#BDCBEF"/>
<path d="M576.168 342.799L565.008 331.702L561.374 346.718L576.168 342.799Z" fill="white"/>
<path d="M150.302 43.0285L148.12 28.0949L136.696 37.529L150.302 43.0285Z" fill="white"/>
<path d="M113.871 440.98L93.4266 425.437L90.786 450.512L113.871 440.98Z" fill="#F2C74E"/>
<path d="M480.052 365.68L485.318 371.507L486.379 372.681L487.947 372.47L495.738 371.432L491.822 378.248L491.036 379.617L491.72 381.047L495.106 388.13L487.417 386.516L485.871 386.192L484.742 387.283L479.051 392.7L478.212 384.887L478.043 383.315L476.651 382.562L469.741 378.823L476.911 375.611L478.355 374.964L478.641 373.411L480.059 365.68H480.052ZM478.201 359.139L475.681 372.865L462.944 378.571L475.222 385.211L476.726 399.083L486.834 389.461L500.488 392.331L494.47 379.745L501.421 367.644L487.586 369.491L478.227 359.139H478.201Z" fill="#F2C74E"/>
<path d="M260.641 363.375C263.754 363.375 266.797 364.298 269.385 366.027C271.973 367.756 273.991 370.214 275.182 373.09C276.373 375.966 276.685 379.131 276.077 382.184C275.47 385.237 273.971 388.041 271.77 390.242C269.569 392.443 266.765 393.942 263.712 394.549C260.659 395.157 257.494 394.845 254.618 393.654C251.742 392.462 249.284 390.445 247.555 387.857C245.826 385.269 244.903 382.226 244.903 379.113C244.907 374.94 246.566 370.939 249.517 367.989C252.467 365.038 256.468 363.378 260.641 363.375ZM260.641 359.613C256.784 359.612 253.014 360.755 249.806 362.897C246.599 365.04 244.099 368.085 242.623 371.648C241.146 375.211 240.76 379.132 241.512 382.915C242.264 386.698 244.12 390.173 246.847 392.9C249.574 395.628 253.049 397.486 256.832 398.238C260.615 398.991 264.536 398.605 268.099 397.129C271.662 395.653 274.708 393.154 276.851 389.947C278.994 386.74 280.138 382.97 280.138 379.113C280.138 373.942 278.084 368.983 274.428 365.326C270.771 361.669 265.812 359.614 260.641 359.613Z" fill="#090928"/>
<path d="M672.958 371.951C678.005 371.951 682.095 367.86 682.095 362.814C682.095 357.768 678.005 353.677 672.958 353.677C667.912 353.677 663.821 357.768 663.821 362.814C663.821 367.86 667.912 371.951 672.958 371.951Z" fill="#090928"/>
<path d="M56.9537 282.76C64.6778 282.76 70.9394 276.498 70.9394 268.774C70.9394 261.05 64.6778 254.788 56.9537 254.788C49.2297 254.788 42.9681 261.05 42.9681 268.774C42.9681 276.498 49.2297 282.76 56.9537 282.76Z" fill="#090928"/>
<path d="M174.26 398.211L205.357 439.137" stroke="white" stroke-width="1.12848" stroke-miterlimit="10"/>
<path d="M505.913 453.465L551.301 429.338" stroke="white" stroke-width="1.12848" stroke-miterlimit="10"/>
<path d="M195.825 8.45178L236.078 45.5187" stroke="#090928" stroke-width="1.12848" stroke-miterlimit="10"/>
<path d="M614.537 401.577L654.786 438.648" stroke="#090928" stroke-width="1.12848" stroke-miterlimit="10"/>
<path d="M685.816 1L646.936 43.2918" stroke="white" stroke-width="1.12848" stroke-miterlimit="10"/>
<path d="M351.416 314.365L312.536 356.656" stroke="white" stroke-width="1.12848" stroke-miterlimit="10"/>
<path d="M334.613 120.454L357.946 170.129" stroke="#F2C74E" stroke-width="1.12848" stroke-miterlimit="10"/>
<path d="M712.647 189.047L703.706 243.199" stroke="#F2C74E" stroke-width="1.12848" stroke-miterlimit="10"/>
<path d="M50.0929 152.126C47.1777 161.087 32.9814 156.464 30.0661 165.424C27.1509 174.384 41.351 179.003 38.4282 187.959C35.5054 196.916 21.3166 192.3 18.3976 201.257C15.4786 210.213 29.6825 214.84 26.7597 223.8" stroke="#090928" stroke-width="1.12848" stroke-miterlimit="10"/>
<path d="M66.0836 365.631L27.2036 407.923" stroke="#090928" stroke-width="1.12848" stroke-miterlimit="10"/>
<path d="M94.0844 17.3179L36.8026 53.8092" stroke="white" stroke-width="1.12848" stroke-miterlimit="10"/>
<path d="M515.038 10.6335C522.979 14.4666 516.483 27.9106 524.442 31.7475C532.402 35.5843 538.876 22.1403 546.817 25.9771C554.757 29.814 548.265 43.258 556.221 47.0948C564.176 50.9316 570.658 37.4877 578.598 41.3245" stroke="#F2C74E" stroke-width="1.12848" stroke-miterlimit="10"/>
<path d="M341.308 47.17L407.934 23.9534" stroke="white" stroke-width="1.12848" stroke-miterlimit="10"/>
<path d="M401.013 416.097C391.09 419.453 386.309 405.309 376.386 408.664C366.463 412.02 371.244 426.16 361.339 429.511C351.435 432.863 346.635 418.723 336.712 422.078C326.789 425.434 331.566 439.573 321.643 442.929" stroke="white" stroke-width="1.12848" stroke-miterlimit="10" stroke-linecap="round"/>
<path d="M494.425 178.939L355.716 216.47L393.246 355.179L531.956 317.649L494.425 178.939Z" fill="#BDCBEF"/>
<path d="M396.77 205.387L376.849 294.639" stroke="white" stroke-width="0.752322" stroke-miterlimit="10"/>
<path d="M380.252 209.856L435.62 343.739" stroke="white" stroke-width="0.752322" stroke-miterlimit="10"/>
<path d="M458.63 337.513L463.001 203.988" stroke="white" stroke-width="0.752322" stroke-miterlimit="10"/>
<path d="M504.206 325.187L482.78 206.997" stroke="white" stroke-width="0.752322" stroke-miterlimit="10"/>
<path d="M470.238 334.376L467.774 216.886" stroke="white" stroke-width="0.752322" stroke-miterlimit="10"/>
<path d="M386.809 331.461L445.946 194.719" stroke="white" stroke-width="0.752322" stroke-miterlimit="10"/>
<path d="M463.131 46.8904L371.439 157.531L482.079 249.224L573.772 138.583L463.131 46.8904Z" fill="#F2C74E"/>
<path d="M561.107 149.903C561.107 149.903 551.786 158.796 553.832 161.068C555.879 163.34 571.339 161.068 571.339 161.068C571.339 161.068 572.245 165.16 578.614 164.935C584.982 164.709 597.941 164.935 597.941 164.935" fill="#BDCBEF"/>
<path d="M491.13 152.164L527.798 187.102C527.798 187.102 538.03 240.517 546.557 251.162C555.085 261.807 598.396 294.191 598.396 294.191L638.98 339.21L702.416 307.206L671.721 270.647C671.721 270.647 678.687 204.687 674.253 192.214C671.025 183.137 632.984 149.922 608.703 127.225C603.969 122.803 598.311 119.489 592.139 117.523C585.967 115.557 579.435 114.988 573.016 115.857L502.862 125.34C502.232 125.426 501.642 125.697 501.167 126.119C500.692 126.542 500.354 127.097 500.196 127.712C500.038 128.328 500.066 128.977 500.279 129.576C500.491 130.175 500.877 130.698 501.388 131.076L509.043 136.741L571.109 137.193L609.154 202.592L572.02 201.994C572.02 201.994 532.666 132.25 493.812 141.899C492.761 142.164 491.801 142.707 491.032 143.471C490.262 144.234 489.712 145.19 489.438 146.239C489.164 147.288 489.176 148.391 489.474 149.433C489.772 150.475 490.344 151.418 491.13 152.164Z" fill="white"/>
<path d="M637.445 183.141C637.445 183.141 599.265 126.973 591.678 120.39C586.005 115.466 578.614 115.466 578.614 115.466" stroke="#717A7F" stroke-width="1.12848" stroke-miterlimit="10"/>
<path d="M656.772 178.973C656.772 178.973 618.479 139.123 603.711 124.746C596.94 118.152 590.842 117.136 590.842 117.136" stroke="#717A7F" stroke-width="1.12848" stroke-miterlimit="10"/>
<path d="M670.667 163.859L492.909 155.959L470.238 142.448L494.888 134.123L671.638 141.985C673.076 142.046 674.489 142.391 675.794 142.999C677.099 143.607 678.271 144.467 679.243 145.529C680.215 146.591 680.968 147.834 681.459 149.188C681.95 150.541 682.168 151.978 682.103 153.417C682.039 154.854 681.693 156.264 681.084 157.567C680.475 158.871 679.614 160.041 678.552 161.011C677.49 161.981 676.246 162.732 674.893 163.22C673.54 163.709 672.104 163.926 670.667 163.859Z" fill="#090928"/>
<path d="M537.056 158.284L495.219 156.426L491.13 152.533C490.345 151.786 489.775 150.842 489.478 149.799C489.182 148.757 489.17 147.654 489.444 146.606C489.718 145.557 490.268 144.602 491.037 143.838C491.806 143.074 492.766 142.531 493.816 142.263C508.934 138.509 524.116 146.781 537.056 158.284Z" fill="white"/>
<path d="M671.552 157.919C674.409 157.919 676.724 155.604 676.724 152.747C676.724 149.891 674.409 147.575 671.552 147.575C668.696 147.575 666.38 149.891 666.38 152.747C666.38 155.604 668.696 157.919 671.552 157.919Z" fill="white"/>
<path d="M504.206 125.144C504.206 125.144 513.516 134.409 519.181 123.121L504.206 125.144Z" fill="#BDCBEF"/>
<path d="M494.399 155.267C494.399 155.267 492.894 148.399 502.573 149.448C512.251 150.498 513.598 158.228 510.096 160.842C507.89 162.415 505.204 163.168 502.501 162.971" fill="#BDCBEF"/>
<path d="M417.414 167.763C417.414 167.763 425.599 105.136 437.648 103.545C449.696 101.954 450.836 158.796 456.08 159.364C461.323 159.932 470.238 142.448 470.238 142.448" stroke="#090928" stroke-width="7.14705" stroke-miterlimit="10"/>
<path d="M206.868 65.7863L68.1582 103.317L105.689 242.026L244.398 204.496L206.868 65.7863Z" fill="#BDCBEF"/>
<path d="M321.108 131.011L179.333 107.591L155.913 249.367L297.688 272.787L321.108 131.011Z" fill="#F2C74E"/>
<path d="M173.342 142.105C173.342 142.105 212.99 161.914 248.834 118.987" stroke="white" stroke-width="0.752322" stroke-miterlimit="10"/>
<path d="M279.051 123.975C279.051 123.975 259.972 185.706 171.604 152.634" stroke="white" stroke-width="0.752322" stroke-miterlimit="10"/>
<path d="M236.578 200.418C236.578 200.418 275.252 226.17 260.585 265.979" stroke="white" stroke-width="0.752322" stroke-miterlimit="10"/>
<path d="M319.236 140.593C319.236 140.593 286.288 158.401 279.739 185.541C273.19 212.681 315.677 231.741 284.877 270.64" stroke="white" stroke-width="0.752322" stroke-miterlimit="10"/>
<path d="M315.218 164.908C315.218 164.908 261.085 184.578 306.762 216.123" stroke="white" stroke-width="0.752322" stroke-miterlimit="10"/>
<path d="M88.698 321.124L118.11 303.068C118.11 303.068 141.184 244.056 148.47 233.144C154.804 223.642 180 172.917 186.41 159.973C186.634 159.516 186.956 159.113 187.353 158.793C187.749 158.473 188.211 158.244 188.706 158.122C189.201 158 189.716 157.987 190.216 158.085C190.716 158.184 191.189 158.39 191.601 158.69C193.763 160.278 196.069 163.249 196.069 168.685L208.355 139.743C208.585 139.194 208.953 138.712 209.421 138.345C209.89 137.977 210.445 137.735 211.034 137.642C211.622 137.549 212.225 137.608 212.784 137.813C213.344 138.018 213.841 138.363 214.23 138.814C216.788 141.823 219.372 148.241 218.519 161.865L228.976 132.784C229.199 132.164 229.593 131.618 230.112 131.212C230.632 130.805 231.255 130.553 231.911 130.484C232.567 130.416 233.229 130.534 233.821 130.825C234.413 131.116 234.911 131.568 235.258 132.13C238.267 137.001 241.837 145.246 241.652 156.956L243.048 152.98C243.288 152.289 243.738 151.69 244.335 151.268C244.933 150.846 245.647 150.621 246.379 150.625C247.11 150.63 247.822 150.864 248.414 151.293C249.006 151.723 249.449 152.327 249.68 153.022C253.419 164.261 257.083 185.371 244.553 209.28C244.553 209.28 247.114 232.926 229.055 263.508L224.372 299.307L252.832 299.649C252.832 299.649 288.112 284.787 300.142 309.087C300.38 309.572 300.503 310.106 300.501 310.646C300.499 311.186 300.372 311.719 300.129 312.202C299.887 312.685 299.536 313.106 299.105 313.43C298.673 313.755 298.172 313.976 297.64 314.075C285.603 316.332 251.158 323.103 239.234 328.99C224.688 336.137 200.651 349.795 174.718 349.111L131.708 379.124L88.698 321.124Z" fill="white"/>
<path d="M196.386 167.763L163.317 240.212" stroke="#717A7F" stroke-width="1.12848" stroke-miterlimit="10"/>
<path d="M219.196 159.364L185.157 241.69" stroke="#717A7F" stroke-width="1.12848" stroke-miterlimit="10"/>
<path d="M242.254 156.881L210.104 246.407" stroke="#717A7F" stroke-width="1.12848" stroke-miterlimit="10"/>
<path d="M275.179 318.63C275.179 318.63 281.036 295.951 295.176 314.53L275.179 318.63Z" fill="#BDCBEF"/>
<path d="M242.717 153.917C242.717 153.917 251.719 164.036 236.864 170.129L242.717 153.917Z" fill="#BDCBEF"/>
<path d="M228.077 135.338C228.077 135.338 240.298 141.064 223.13 149.095L228.077 135.338Z" fill="#BDCBEF"/>
<path d="M207.945 140.706C207.945 140.706 217.176 150.904 201.08 156.881L207.945 140.706Z" fill="#BDCBEF"/>
<path d="M186.063 160.68C186.063 160.68 192.605 168.67 179.872 173.131L186.063 160.68Z" fill="#BDCBEF"/>
<path d="M80.2531 148.056L173.067 145.63" stroke="white" stroke-width="0.752322" stroke-miterlimit="10"/>
<path d="M73.5125 123.136L164.923 188.58" stroke="white" stroke-width="0.752322" stroke-miterlimit="10"/>
<path d="M106.085 93.0616L217.063 103.511" stroke="white" stroke-width="0.752322" stroke-miterlimit="10"/>
<path d="M211.511 82.988L137.009 85.6964" stroke="white" stroke-width="0.752322" stroke-miterlimit="10"/>
<path d="M98.3205 214.847L159.766 212.7" stroke="white" stroke-width="0.752322" stroke-miterlimit="10"/>
<path d="M100.953 224.579L126.397 236.428" stroke="white" stroke-width="0.752322" stroke-miterlimit="10"/>
</svg>
