<svg width="712" height="752" viewBox="0 0 712 752" fill="none" xmlns="http://www.w3.org/2000/svg">
<g clip-path="url(#clip0)">
<path d="M280.07 291.702L295.034 302.719L278.61 309.923L280.062 291.717L280.07 291.702ZM276.846 284.683L274.364 315.904L302.519 303.551L276.854 284.683H276.846Z" fill="#090928"/>
<path d="M656.945 318.62L630.587 318.007L643.493 340.445L656.945 318.62Z" fill="#BDCBEF"/>
<path d="M576.168 571.799L565.008 560.702L561.374 575.718L576.168 571.799Z" fill="white"/>
<path d="M150.302 272.028L148.12 257.095L136.696 266.529L150.302 272.028Z" fill="white"/>
<path d="M113.871 669.98L93.4266 654.437L90.786 679.512L113.871 669.98Z" fill="#F2C74E"/>
<path d="M480.052 594.68L485.318 600.507L486.379 601.681L487.947 601.47L495.738 600.432L491.822 607.248L491.036 608.617L491.72 610.047L495.106 617.13L487.417 615.516L485.871 615.192L484.742 616.283L479.051 621.7L478.212 613.887L478.043 612.315L476.651 611.562L469.741 607.823L476.911 604.611L478.355 603.964L478.641 602.411L480.059 594.68H480.052ZM478.201 588.139L475.681 601.865L462.944 607.571L475.222 614.211L476.726 628.083L486.834 618.461L500.488 621.331L494.47 608.745L501.421 596.644L487.586 598.491L478.227 588.139H478.201Z" fill="#F2C74E"/>
<path d="M260.641 592.375C263.754 592.375 266.797 593.298 269.385 595.027C271.973 596.756 273.991 599.214 275.182 602.09C276.373 604.966 276.685 608.131 276.077 611.184C275.47 614.237 273.971 617.041 271.77 619.242C269.569 621.443 266.765 622.942 263.712 623.549C260.659 624.157 257.494 623.845 254.618 622.654C251.742 621.462 249.284 619.445 247.555 616.857C245.826 614.269 244.903 611.226 244.903 608.113C244.907 603.94 246.566 599.939 249.517 596.989C252.467 594.038 256.468 592.378 260.641 592.375ZM260.641 588.613C256.784 588.612 253.014 589.755 249.806 591.897C246.599 594.04 244.099 597.085 242.623 600.648C241.146 604.211 240.76 608.132 241.512 611.915C242.264 615.698 244.12 619.173 246.847 621.9C249.574 624.628 253.049 626.486 256.832 627.238C260.615 627.991 264.536 627.605 268.099 626.129C271.662 624.653 274.708 622.154 276.851 618.947C278.994 615.74 280.138 611.97 280.138 608.113C280.138 602.942 278.084 597.983 274.428 594.326C270.771 590.669 265.812 588.614 260.641 588.613Z" fill="#090928"/>
<path d="M672.958 600.951C678.005 600.951 682.095 596.86 682.095 591.814C682.095 586.768 678.005 582.677 672.958 582.677C667.912 582.677 663.821 586.768 663.821 591.814C663.821 596.86 667.912 600.951 672.958 600.951Z" fill="#090928"/>
<path d="M56.9537 511.76C64.6778 511.76 70.9394 505.498 70.9394 497.774C70.9394 490.05 64.6778 483.788 56.9537 483.788C49.2297 483.788 42.9681 490.05 42.9681 497.774C42.9681 505.498 49.2297 511.76 56.9537 511.76Z" fill="#090928"/>
<path d="M174.26 627.211L205.357 668.137" stroke="white" stroke-width="1.12848" stroke-miterlimit="10"/>
<path d="M505.913 682.465L551.301 658.338" stroke="white" stroke-width="1.12848" stroke-miterlimit="10"/>
<path d="M195.825 237.452L236.078 274.519" stroke="#090928" stroke-width="1.12848" stroke-miterlimit="10"/>
<path d="M614.537 630.577L654.786 667.648" stroke="#090928" stroke-width="1.12848" stroke-miterlimit="10"/>
<path d="M685.816 230L646.936 272.292" stroke="white" stroke-width="1.12848" stroke-miterlimit="10"/>
<path d="M351.416 543.365L312.536 585.656" stroke="white" stroke-width="1.12848" stroke-miterlimit="10"/>
<path d="M334.613 349.454L357.946 399.129" stroke="#F2C74E" stroke-width="1.12848" stroke-miterlimit="10"/>
<path d="M712.647 418.047L703.706 472.199" stroke="#F2C74E" stroke-width="1.12848" stroke-miterlimit="10"/>
<path d="M50.0929 381.126C47.1777 390.087 32.9814 385.464 30.0661 394.424C27.1509 403.384 41.351 408.003 38.4282 416.959C35.5054 425.916 21.3166 421.3 18.3976 430.257C15.4786 439.213 29.6825 443.84 26.7597 452.8" stroke="#090928" stroke-width="1.12848" stroke-miterlimit="10"/>
<path d="M66.0836 594.631L27.2036 636.923" stroke="#090928" stroke-width="1.12848" stroke-miterlimit="10"/>
<path d="M94.0844 246.318L36.8026 282.809" stroke="white" stroke-width="1.12848" stroke-miterlimit="10"/>
<path d="M515.038 239.634C522.979 243.467 516.483 256.911 524.442 260.747C532.402 264.584 538.876 251.14 546.817 254.977C554.757 258.814 548.265 272.258 556.221 276.095C564.176 279.932 570.658 266.488 578.598 270.325" stroke="#F2C74E" stroke-width="1.12848" stroke-miterlimit="10"/>
<path d="M341.308 276.17L407.934 252.953" stroke="white" stroke-width="1.12848" stroke-miterlimit="10"/>
<path d="M401.013 645.097C391.09 648.453 386.309 634.309 376.386 637.664C366.463 641.02 371.244 655.16 361.339 658.511C351.435 661.863 346.635 647.723 336.712 651.078C326.789 654.434 331.566 668.573 321.643 671.929" stroke="white" stroke-width="1.12848" stroke-miterlimit="10" stroke-linecap="round"/>
<path d="M494.425 407.939L355.716 445.47L393.246 584.179L531.956 546.649L494.425 407.939Z" fill="#BDCBEF"/>
<path d="M396.77 434.387L376.849 523.639" stroke="white" stroke-width="0.752322" stroke-miterlimit="10"/>
<path d="M380.252 438.856L435.62 572.739" stroke="white" stroke-width="0.752322" stroke-miterlimit="10"/>
<path d="M458.63 566.513L463.001 432.988" stroke="white" stroke-width="0.752322" stroke-miterlimit="10"/>
<path d="M504.206 554.187L482.78 435.997" stroke="white" stroke-width="0.752322" stroke-miterlimit="10"/>
<path d="M470.238 563.376L467.774 445.886" stroke="white" stroke-width="0.752322" stroke-miterlimit="10"/>
<path d="M386.809 560.461L445.946 423.719" stroke="white" stroke-width="0.752322" stroke-miterlimit="10"/>
<path d="M463.131 275.89L371.439 386.531L482.079 478.224L573.772 367.583L463.131 275.89Z" fill="#F2C74E"/>
<path d="M561.107 378.903C561.107 378.903 551.786 387.796 553.832 390.068C555.879 392.34 571.339 390.068 571.339 390.068C571.339 390.068 572.245 394.16 578.614 393.935C584.982 393.709 597.941 393.935 597.941 393.935" fill="#BDCBEF"/>
<path d="M491.13 381.164L527.798 416.102C527.798 416.102 538.03 469.517 546.557 480.162C555.085 490.807 598.396 523.191 598.396 523.191L638.98 568.21L702.416 536.206L671.721 499.647C671.721 499.647 678.687 433.687 674.253 421.214C671.025 412.137 632.984 378.922 608.703 356.225C603.969 351.803 598.311 348.489 592.139 346.523C585.967 344.557 579.435 343.988 573.016 344.857L502.862 354.34C502.232 354.426 501.642 354.697 501.167 355.119C500.692 355.542 500.354 356.097 500.196 356.712C500.038 357.328 500.066 357.977 500.279 358.576C500.491 359.175 500.877 359.698 501.388 360.076L509.043 365.741L571.109 366.193L609.154 431.592L572.02 430.994C572.02 430.994 532.666 361.25 493.812 370.899C492.761 371.164 491.801 371.707 491.032 372.471C490.262 373.234 489.712 374.19 489.438 375.239C489.164 376.288 489.176 377.391 489.474 378.433C489.772 379.475 490.344 380.418 491.13 381.164Z" fill="white"/>
<path d="M637.445 412.141C637.445 412.141 599.265 355.973 591.678 349.39C586.005 344.466 578.614 344.466 578.614 344.466" stroke="#717A7F" stroke-width="1.12848" stroke-miterlimit="10"/>
<path d="M656.772 407.973C656.772 407.973 618.479 368.123 603.711 353.746C596.94 347.152 590.842 346.136 590.842 346.136" stroke="#717A7F" stroke-width="1.12848" stroke-miterlimit="10"/>
<path d="M670.667 392.859L492.909 384.959L470.238 371.448L494.888 363.123L671.638 370.985C673.076 371.046 674.489 371.391 675.794 371.999C677.099 372.607 678.271 373.467 679.243 374.529C680.215 375.591 680.968 376.834 681.459 378.188C681.95 379.541 682.168 380.978 682.103 382.417C682.039 383.854 681.693 385.264 681.084 386.567C680.475 387.871 679.614 389.041 678.552 390.011C677.49 390.981 676.246 391.732 674.893 392.22C673.54 392.709 672.104 392.926 670.667 392.859Z" fill="#090928"/>
<path d="M537.056 387.284L495.219 385.426L491.13 381.533C490.345 380.786 489.775 379.842 489.478 378.799C489.182 377.757 489.17 376.654 489.444 375.606C489.718 374.557 490.268 373.602 491.037 372.838C491.806 372.074 492.766 371.531 493.816 371.263C508.934 367.509 524.116 375.781 537.056 387.284Z" fill="white"/>
<path d="M671.552 386.919C674.409 386.919 676.724 384.604 676.724 381.747C676.724 378.891 674.409 376.575 671.552 376.575C668.696 376.575 666.38 378.891 666.38 381.747C666.38 384.604 668.696 386.919 671.552 386.919Z" fill="white"/>
<path d="M504.206 354.144C504.206 354.144 513.516 363.409 519.181 352.121L504.206 354.144Z" fill="#BDCBEF"/>
<path d="M494.399 384.267C494.399 384.267 492.894 377.399 502.573 378.448C512.251 379.498 513.598 387.228 510.096 389.842C507.89 391.415 505.204 392.168 502.501 391.971" fill="#BDCBEF"/>
<path d="M417.414 396.763C417.414 396.763 425.599 334.136 437.648 332.545C449.696 330.954 450.836 387.796 456.08 388.364C461.323 388.932 470.238 371.448 470.238 371.448" stroke="#090928" stroke-width="7.14705" stroke-miterlimit="10"/>
<path d="M206.868 294.786L68.1582 332.317L105.689 471.026L244.398 433.496L206.868 294.786Z" fill="#BDCBEF"/>
<path d="M321.108 360.011L179.333 336.591L155.913 478.367L297.688 501.787L321.108 360.011Z" fill="#F2C74E"/>
<path d="M173.342 371.105C173.342 371.105 212.99 390.914 248.834 347.987" stroke="white" stroke-width="0.752322" stroke-miterlimit="10"/>
<path d="M279.051 352.975C279.051 352.975 259.972 414.706 171.604 381.634" stroke="white" stroke-width="0.752322" stroke-miterlimit="10"/>
<path d="M236.578 429.418C236.578 429.418 275.252 455.17 260.585 494.979" stroke="white" stroke-width="0.752322" stroke-miterlimit="10"/>
<path d="M319.236 369.593C319.236 369.593 286.288 387.401 279.739 414.541C273.19 441.681 315.677 460.741 284.877 499.64" stroke="white" stroke-width="0.752322" stroke-miterlimit="10"/>
<path d="M315.218 393.908C315.218 393.908 261.085 413.578 306.762 445.123" stroke="white" stroke-width="0.752322" stroke-miterlimit="10"/>
<path d="M88.698 550.124L118.11 532.068C118.11 532.068 141.184 473.056 148.47 462.144C154.804 452.642 180 401.917 186.41 388.973C186.634 388.516 186.956 388.113 187.353 387.793C187.749 387.473 188.211 387.244 188.706 387.122C189.201 387 189.716 386.987 190.216 387.085C190.716 387.184 191.189 387.39 191.601 387.69C193.763 389.278 196.069 392.249 196.069 397.685L208.355 368.743C208.585 368.194 208.953 367.712 209.421 367.345C209.89 366.977 210.445 366.735 211.034 366.642C211.622 366.549 212.225 366.608 212.784 366.813C213.344 367.018 213.841 367.363 214.23 367.814C216.788 370.823 219.372 377.241 218.519 390.865L228.976 361.784C229.199 361.164 229.593 360.618 230.112 360.212C230.632 359.805 231.255 359.553 231.911 359.484C232.567 359.416 233.229 359.534 233.821 359.825C234.413 360.116 234.911 360.568 235.258 361.13C238.267 366.001 241.837 374.246 241.652 385.956L243.048 381.98C243.288 381.289 243.738 380.69 244.335 380.268C244.933 379.846 245.647 379.621 246.379 379.625C247.11 379.63 247.822 379.864 248.414 380.293C249.006 380.723 249.449 381.327 249.68 382.022C253.419 393.261 257.083 414.371 244.553 438.28C244.553 438.28 247.114 461.926 229.055 492.508L224.372 528.307L252.832 528.649C252.832 528.649 288.112 513.787 300.142 538.087C300.38 538.572 300.503 539.106 300.501 539.646C300.499 540.186 300.372 540.719 300.129 541.202C299.887 541.685 299.536 542.106 299.105 542.43C298.673 542.755 298.172 542.976 297.64 543.075C285.603 545.332 251.158 552.103 239.234 557.99C224.688 565.137 200.651 578.795 174.718 578.111L131.708 608.124L88.698 550.124Z" fill="white"/>
<path d="M196.386 396.763L163.317 469.212" stroke="#717A7F" stroke-width="1.12848" stroke-miterlimit="10"/>
<path d="M219.196 388.364L185.157 470.69" stroke="#717A7F" stroke-width="1.12848" stroke-miterlimit="10"/>
<path d="M242.254 385.881L210.104 475.407" stroke="#717A7F" stroke-width="1.12848" stroke-miterlimit="10"/>
<path d="M275.179 547.63C275.179 547.63 281.036 524.951 295.176 543.53L275.179 547.63Z" fill="#BDCBEF"/>
<path d="M242.717 382.917C242.717 382.917 251.719 393.036 236.864 399.129L242.717 382.917Z" fill="#BDCBEF"/>
<path d="M228.077 364.338C228.077 364.338 240.298 370.064 223.13 378.095L228.077 364.338Z" fill="#BDCBEF"/>
<path d="M207.945 369.706C207.945 369.706 217.176 379.904 201.08 385.881L207.945 369.706Z" fill="#BDCBEF"/>
<path d="M186.063 389.68C186.063 389.68 192.605 397.67 179.872 402.131L186.063 389.68Z" fill="#BDCBEF"/>
<path d="M80.2531 377.056L173.067 374.63" stroke="white" stroke-width="0.752322" stroke-miterlimit="10"/>
<path d="M73.5125 352.136L164.923 417.58" stroke="white" stroke-width="0.752322" stroke-miterlimit="10"/>
<path d="M106.085 322.062L217.063 332.511" stroke="white" stroke-width="0.752322" stroke-miterlimit="10"/>
<path d="M211.511 311.988L137.009 314.696" stroke="white" stroke-width="0.752322" stroke-miterlimit="10"/>
<path d="M98.3205 443.847L159.766 441.7" stroke="white" stroke-width="0.752322" stroke-miterlimit="10"/>
<path d="M100.953 453.579L126.397 465.428" stroke="white" stroke-width="0.752322" stroke-miterlimit="10"/>
</g>
<defs>
<clipPath id="clip0">
<rect width="713" height="752" fill="white"/>
</clipPath>
</defs>
</svg>
